<svg width="18" height="17" viewBox="0 0 18 17" fill="none" xmlns="http://www.w3.org/2000/svg">
<g clip-path="url(#clip0_2:204)">
<path d="M17.6978 0.28022C17.4963 0.0934066 17.2612 0 16.9925 0H15.2799H12.7948H1.00746C0.738806 0 0.470149 0.0934066 0.302239 0.28022C0.100746 0.435897 0 0.684982 0 0.934066V4.82601C0 5.07509 0.100746 5.32418 0.302239 5.47985C0.503731 5.66667 0.738806 5.76007 1.00746 5.76007C1.27612 5.76007 1.54478 5.66667 1.71269 5.47985C1.91418 5.32418 2.01493 5.07509 2.01493 4.82601V1.86813H12.7948H15.2799H15.9851V2.83333V4.82601V15.1319H12.7948C12.5261 15.1319 12.2575 15.2253 12.0896 15.4121C11.9216 15.5989 11.7873 15.8168 11.7873 16.0659C11.7873 16.315 11.8881 16.5641 12.0896 16.7198C12.291 16.8755 12.5261 17 12.7948 17H16.9925C17.2612 17 17.5299 16.9066 17.6978 16.7198C17.8657 16.533 18 16.315 18 16.0659V4.82601V2.83333V0.934066C18 0.684982 17.8993 0.435897 17.6978 0.28022Z" fill="#C1C1C1"/>
<path d="M7.22015 17H0.906716C0.402985 17 0 16.6264 0 16.1593V10.3059C0 9.83884 0.402985 9.46521 0.906716 9.46521H7.22015C7.72388 9.46521 8.12687 9.83884 8.12687 10.3059V16.1593C8.12687 16.6264 7.72388 17 7.22015 17Z" fill="#C1C1C1"/>
</g>
<defs>
<clipPath id="clip0_2:204">
<rect width="18" height="17" fill="white"/>
</clipPath>
</defs>
</svg>
