<svg width="18" height="18" viewBox="0 0 18 18" fill="none" xmlns="http://www.w3.org/2000/svg">
<path d="M17.7084 0.291892C17.5138 0.0972973 17.2867 0 17.0273 0H12.9732C12.7138 0 12.4543 0.0972973 12.2921 0.291892C12.0975 0.486486 12.0002 0.713513 12.0002 0.972973C12.0002 1.23243 12.0975 1.49189 12.2921 1.65405C12.4543 1.84865 12.7138 1.94595 12.9732 1.94595H16.0543V5.02703C16.0543 5.28649 16.1516 5.54595 16.3462 5.70811C16.5408 5.9027 16.7678 6 17.0273 6C17.2867 6 17.5462 5.9027 17.7084 5.70811C17.9029 5.51351 18.0002 5.28649 18.0002 5.02703V0.972973C18.0002 0.713513 17.9029 0.454054 17.7084 0.291892Z" fill="#C1C1C1"/>
<path d="M5.88445 0H1.83039C1.57094 0 1.31148 0.0972973 1.14931 0.291892C0.954719 0.454054 0.857422 0.713513 0.857422 0.972973V5.02703C0.857422 5.28649 0.954719 5.54595 1.14931 5.70811C1.34391 5.9027 1.57094 6 1.83039 6C2.08985 6 2.34931 5.9027 2.51148 5.70811C2.70607 5.54595 2.80337 5.28649 2.80337 5.02703V1.94595H5.88445C6.14391 1.94595 6.40337 1.84865 6.56553 1.65405C6.76012 1.45946 6.85742 1.23243 6.85742 0.972973C6.85742 0.713513 6.76012 0.454054 6.56553 0.291892C6.40337 0.0972973 6.14391 0 5.88445 0Z" fill="#C1C1C1"/>
<path d="M5.88445 15.1969H2.80337V12.1159C2.80337 11.8564 2.70607 11.5969 2.51148 11.4348C2.15472 11.0456 1.50607 11.0456 1.14931 11.4348C0.954719 11.5969 0.857422 11.8564 0.857422 12.1159V16.1699C0.857422 16.4294 0.954719 16.6888 1.14931 16.851C1.34391 17.0456 1.57094 17.1429 1.83039 17.1429H5.88445C6.14391 17.1429 6.40337 17.0456 6.56553 16.851C6.76012 16.6564 6.85742 16.4294 6.85742 16.1699C6.85742 15.9105 6.76012 15.651 6.56553 15.4888C6.40337 15.2942 6.14391 15.1969 5.88445 15.1969Z" fill="#C1C1C1"/>
<path d="M16.3462 11.4348C16.1516 11.6294 16.0543 11.8564 16.0543 12.1159V15.1969H12.9732C12.7138 15.1969 12.4543 15.2942 12.2921 15.4888C12.13 15.6834 12.0002 15.9105 12.0002 16.1699C12.0002 16.4294 12.0975 16.6888 12.2921 16.851C12.4867 17.0132 12.7138 17.1429 12.9732 17.1429H17.0273C17.2867 17.1429 17.5462 17.0456 17.7084 16.851C17.8705 16.6564 18.0002 16.4294 18.0002 16.1699V12.1159C18.0002 11.8564 17.9029 11.5969 17.7084 11.4348C17.3516 11.0456 16.7029 11.0456 16.3462 11.4348Z" fill="#C1C1C1"/>
</svg>
