<?xml version="1.0" encoding="utf-8"?>
<!-- Generator: Adobe Illustrator 25.2.1, SVG Export Plug-In . SVG Version: 6.00 Build 0)  -->
<svg version="1.1" id="Layer_1" xmlns="http://www.w3.org/2000/svg" xmlns:xlink="http://www.w3.org/1999/xlink" x="0px" y="0px"
	 viewBox="0 0 300 300" style="enable-background:new 0 0 300 300;" xml:space="preserve">
<style type="text/css">
	.st0{opacity:0.8;fill:url(#SVGID_1_);}
</style>
<linearGradient id="SVGID_1_" gradientUnits="userSpaceOnUse" x1="2.2713" y1="149.5202" x2="297.2713" y2="149.5202">
	<stop  offset="0" style="stop-color:#FFFFFF"/>
	<stop  offset="1" style="stop-color:#707070"/>
</linearGradient>
<path class="st0" d="M149.8,2C68.3,2,2.3,68.1,2.3,149.5S68.3,297,149.8,297c81.5,0,147.5-66,147.5-147.5S231.2,2,149.8,2z
	 M131.3,212.4h-28.4c-4.1,0-7.3-3.3-7.3-7.3V94c0-4.1,3.3-7.3,7.3-7.3h28.4c4.1,0,7.3,3.3,7.3,7.3v111h0
	C138.6,209.1,135.3,212.4,131.3,212.4z M204,205c0,4.1-3.3,7.3-7.3,7.3h-28.4c-4.1,0-7.4-3.3-7.4-7.3V94c0-4.1,3.3-7.3,7.4-7.3h28.4
	c4.1,0,7.3,3.3,7.3,7.3V205z"/>
</svg>
