<svg width="21" height="17" viewBox="0 0 21 17" fill="none" xmlns="http://www.w3.org/2000/svg">
<g clip-path="url(#clip0_2:194)">
<path d="M17.9052 0.9897C17.5469 0.629817 16.9692 0.629817 16.6154 0.9897C16.4407 1.16514 16.3467 1.39457 16.3467 1.63749C16.3467 1.88041 16.4407 2.11434 16.6154 2.28528C18.2635 3.94074 19.1727 6.14503 19.1727 8.49327C19.1727 10.8415 18.2635 13.0458 16.6154 14.7013C16.4407 14.8767 16.3467 15.1061 16.3467 15.3491C16.3467 15.592 16.4407 15.8259 16.6154 15.9968C16.7901 16.1723 17.0185 16.2668 17.2603 16.2668C17.5021 16.2668 17.735 16.1723 17.9052 15.9968C19.8982 13.995 20.9954 11.3274 20.9954 8.48877C20.9999 5.65919 19.9027 2.99605 17.9052 0.9897Z" fill="#C1C1C1"/>
<path d="M15.106 3.8058C14.9314 3.63036 14.703 3.53589 14.4611 3.53589C14.2193 3.53589 13.9864 3.63036 13.8162 3.8058C13.4579 4.16569 13.4579 4.746 13.8162 5.10138C14.7164 6.00559 15.2135 7.2112 15.2135 8.49778C15.2135 9.77987 14.7164 10.9855 13.8162 11.8942C13.6415 12.0696 13.5475 12.2991 13.5475 12.542C13.5475 12.7849 13.6415 13.0188 13.8162 13.1898C13.9909 13.3652 14.2193 13.4597 14.4611 13.4597C14.7074 13.4597 14.9358 13.3652 15.106 13.1898C16.3511 11.9392 17.0363 10.2702 17.0363 8.49778C17.0363 6.72536 16.3511 5.0609 15.106 3.8058Z" fill="#C1C1C1"/>
<path d="M11.08 0.169112C10.6142 -0.0828065 10.0499 -0.0558152 9.611 0.241089L3.46641 4.35276H1.13756C0.541907 4.35276 0.0537428 4.81161 0 5.39642V11.5954C0.0537428 12.1802 0.541907 12.6391 1.13756 12.6391H3.46641L9.611 16.7552C9.85285 16.9172 10.126 16.9982 10.4037 16.9982C10.6366 16.9982 10.865 16.9397 11.08 16.8272C11.5457 16.5753 11.8369 16.0895 11.8369 15.5631V1.4377C11.8324 0.902375 11.5457 0.421031 11.08 0.169112Z" fill="#C1C1C1"/>
</g>
<defs>
<clipPath id="clip0_2:194">
<rect width="21" height="17" fill="white"/>
</clipPath>
</defs>
</svg>
